<svg xmlns="http://www.w3.org/2000/svg"  viewBox="0 0 32 32" width="50px" height="50px"><path d="M 19 4 C 12.384534 4 7 9.3845336 7 16 C 7 22.615466 12.384534 28 19 28 C 20.75121 28 22.413314 27.614169 23.910156 26.941406 L 25.939453 26.029297 L 23.910156 25.117188 C 20.430069 23.55392 18 20.071641 18 16 C 18 11.928359 20.430069 8.4460796 23.910156 6.8828125 L 25.939453 5.9707031 L 23.910156 5.0585938 C 22.413314 4.3858314 20.75121 4 19 4 z M 19 6 C 19.692536 6 20.289975 6.2841646 20.941406 6.4199219 C 17.977941 8.6045028 16 12.043236 16 16 C 16 19.956764 17.977941 23.395497 20.941406 25.580078 C 20.289975 25.715835 19.692536 26 19 26 C 13.465466 26 9 21.534534 9 16 C 9 10.465466 13.465466 6 19 6 z"/></svg>